<?xml version="1.0" standalone="no"?>
<!DOCTYPE svg PUBLIC "-//W3C//DTD SVG 20010904//EN"
 "http://www.w3.org/TR/2001/REC-SVG-20010904/DTD/svg10.dtd">
<svg version="1.0" xmlns="http://www.w3.org/2000/svg"
 width="1024.000000pt" height="1024.000000pt" viewBox="0 0 1024.000000 1024.000000"
 preserveAspectRatio="xMidYMid meet">

<g transform="translate(0.000000,1024.000000) scale(0.100000,-0.100000)"
fill="#000000" stroke="none">
<path d="M5270 8419 c-14 -4 -45 -7 -68 -8 l-44 -1 4 -120 3 -120 70 0 70 0
-3 102 c-4 160 -3 155 -32 147z"/>
<path d="M4790 8417 c0 -3 9 -24 20 -48 11 -24 20 -57 20 -72 0 -29 -22 -80
-48 -109 -14 -17 -8 -18 109 -19 129 -1 151 0 159 8 3 2 7 53 8 112 l4 108
-109 6 c-59 4 -120 10 -135 13 -16 4 -28 4 -28 1z"/>
<path d="M5022 8038 c-7 -9 -10 -61 -8 -151 2 -81 -1 -140 -6 -143 -6 -4 -7
-29 -3 -60 l6 -54 -45 0 c-40 0 -46 3 -46 21 0 11 5 29 11 40 8 16 6 27 -10
52 -11 18 -28 48 -37 67 l-16 35 -15 -50 c-9 -27 -17 -87 -18 -132 -3 -73 -9
-94 -48 -180 -24 -54 -57 -136 -72 -183 -31 -94 -226 -549 -301 -705 -44 -89
-53 -100 -81 -107 -48 -12 -40 -28 15 -29 135 -4 1370 3 1386 8 10 3 14 8 9
12 -12 7 -60 115 -158 356 -40 99 -103 254 -140 345 -37 91 -92 219 -123 285
-53 114 -55 124 -55 199 0 56 -5 92 -18 120 -15 35 -19 38 -25 21 -4 -11 -19
-35 -32 -53 -24 -32 -26 -56 -7 -104 6 -16 1 -18 -40 -18 l-48 0 7 39 c3 21 1
51 -4 67 -6 16 -14 92 -18 169 -7 132 -8 140 -28 143 -11 2 -26 -3 -32 -10z
m103 -899 c77 -22 145 -115 145 -199 0 -84 -57 -164 -137 -193 -66 -24 -110
-21 -171 9 -95 47 -139 151 -108 256 32 111 143 162 271 127z"/>
<path d="M4974 7016 c-90 -90 22 -230 136 -171 41 21 60 53 60 103 0 35 -6 49
-29 73 -25 25 -37 29 -81 29 -46 0 -56 -4 -86 -34z"/>
<path d="M2806 6365 c-3 -9 -6 -37 -6 -62 0 -27 -6 -51 -16 -60 -10 -10 -14
-26 -11 -42 14 -68 16 -66 -35 -69 -27 -2 -48 -1 -48 1 0 2 5 18 11 36 14 39
5 77 -21 91 -15 8 -24 5 -44 -17 -21 -23 -24 -33 -19 -73 l5 -46 -41 4 c-22 2
-41 5 -41 7 0 1 5 16 11 34 17 48 5 81 -30 81 -15 0 -36 -9 -45 -19 -16 -18
-16 -22 -2 -50 24 -45 20 -51 -27 -51 l-44 0 7 47 c4 26 4 54 0 63 -5 8 -12
37 -17 64 -8 52 -26 69 -37 39 -4 -10 -10 -81 -13 -158 -6 -137 -7 -143 -54
-265 -69 -180 -184 -460 -208 -509 -12 -23 -51 -116 -87 -208 -50 -129 -62
-168 -52 -174 15 -10 1169 -12 1282 -3 72 7 76 8 70 28 -7 22 -75 177 -196
446 -42 91 -111 255 -155 365 l-80 200 -6 125 c-7 132 -16 181 -34 187 -6 2
-13 -3 -17 -12z m-81 -729 c113 -67 146 -189 81 -300 -40 -69 -102 -101 -192
-101 -58 1 -78 5 -117 28 -86 51 -129 147 -108 242 10 45 20 62 62 99 79 71
186 83 274 32z"/>
<path d="M2548 5542 c-64 -39 -73 -131 -18 -182 54 -50 122 -48 169 6 54 61
48 137 -13 178 -33 21 -103 20 -138 -2z"/>
<path d="M4948 6360 c-317 -3 -579 -8 -583 -12 -9 -8 11 -45 46 -86 l29 -33 0
-224 0 -225 -46 0 -45 0 7 45 c12 84 -45 128 -81 62 -14 -27 -15 -38 -6 -55
22 -41 15 -52 -35 -52 l-47 0 7 48 c6 52 -9 95 -36 100 -25 5 -62 -71 -48 -97
22 -42 13 -52 -37 -49 l-48 3 3 56 c3 42 0 60 -13 72 -25 26 -39 21 -64 -23
-17 -31 -20 -44 -11 -59 21 -40 13 -51 -35 -51 l-45 0 6 55 c6 45 4 59 -11 75
-25 28 -42 25 -60 -11 -12 -21 -14 -43 -9 -75 l6 -44 -46 0 -46 0 6 55 c6 45
4 59 -11 75 -26 29 -43 25 -62 -15 -13 -28 -14 -41 -6 -69 6 -19 8 -37 5 -40
-3 -3 -25 -6 -49 -6 -45 0 -47 3 -34 50 9 31 -5 77 -29 90 -13 7 -23 3 -40
-15 -22 -24 -25 -64 -5 -107 6 -15 1 -18 -32 -18 l-40 0 -6 107 c-4 58 -7 143
-7 189 l0 82 31 7 c39 9 43 22 24 68 -8 20 -15 51 -15 68 l0 31 -132 -7 c-73
-4 -136 -10 -139 -14 -9 -9 -29 -96 -29 -125 0 -22 4 -26 31 -26 31 0 31 -1
25 -37 -3 -21 -6 -107 -6 -190 l0 -153 -40 0 c-51 0 -52 -12 -4 -127 44 -106
237 -494 288 -577 43 -71 45 -102 11 -174 -14 -30 -25 -55 -25 -56 0 -1 33 0
73 1 39 2 271 4 513 6 l441 3 6 -81 c3 -44 13 -100 21 -124 9 -24 16 -45 16
-48 0 -2 -28 -1 -62 3 l-61 7 6 -33 c4 -18 7 -45 7 -61 0 -24 4 -28 33 -31
l32 -3 -1 -617 -1 -618 53 0 54 0 1 38 c1 20 5 298 8 617 l6 580 503 3 504 2
-2 -597 c-1 -329 -1 -608 -1 -620 1 -21 6 -23 50 -23 l48 0 7 53 c3 28 6 307
6 620 l0 567 30 0 c29 0 30 2 30 44 0 24 3 51 6 60 5 13 -2 16 -35 16 l-42 0
7 268 c4 147 10 271 14 275 13 14 38 -4 49 -35 6 -17 11 -84 11 -149 l0 -119
490 0 490 0 -30 57 c-25 47 -30 65 -24 96 3 21 60 148 125 282 65 135 128 267
139 295 11 28 31 73 45 101 14 28 30 62 36 76 9 26 9 26 -36 21 l-45 -6 0 82
c0 44 -3 132 -7 193 l-6 113 32 6 c31 7 33 9 27 43 -3 20 -9 56 -12 79 l-7 44
-126 -3 -126 -3 -17 -48 c-31 -90 -28 -106 25 -122 15 -5 17 -23 17 -191 l0
-185 -40 0 -39 0 5 48 c5 41 2 51 -21 75 -14 15 -28 27 -30 27 -3 0 -11 -13
-20 -30 -17 -33 -20 -86 -5 -95 24 -15 6 -25 -45 -25 l-55 0 6 43 c4 31 1 53
-10 75 -21 40 -29 40 -56 1 -21 -28 -23 -50 -9 -98 5 -18 -22 -25 -67 -17 -31
6 -33 8 -23 34 13 35 4 85 -20 106 -18 16 -20 16 -41 -14 -24 -34 -28 -59 -16
-102 8 -28 8 -28 -44 -28 l-51 0 6 44 c5 31 2 52 -9 75 -20 38 -29 39 -56 4
-18 -23 -21 -36 -16 -75 l7 -48 -44 0 c-24 0 -46 2 -49 5 -3 3 0 23 5 45 10
34 8 43 -9 67 -29 39 -39 38 -64 -2 -19 -30 -21 -41 -11 -61 21 -46 15 -54
-39 -54 -54 0 -54 0 -41 48 12 39 0 79 -25 89 -24 9 -68 -43 -60 -71 22 -76
23 -76 -28 -76 l-46 0 -2 198 c-1 108 -2 213 -2 232 0 25 11 49 37 83 20 27
37 53 37 58 0 23 -83 25 -792 19z m-265 -115 c11 -5 13 -22 9 -80 -4 -65 -2
-76 13 -81 34 -13 50 9 50 67 0 30 -3 63 -5 74 -5 18 1 20 62 23 l68 3 -7 -75
-6 -75 28 -11 c18 -7 32 -7 38 -1 9 9 5 83 -8 134 l-8 28 59 -3 59 -3 -3 -78
-4 -79 29 4 28 3 -2 78 -3 77 56 0 55 0 -7 -81 -7 -81 29 4 c23 2 30 9 36 38
4 19 3 50 -2 69 -5 19 -7 38 -4 43 3 4 32 8 65 8 l59 0 -6 -70 c-7 -75 2 -100
37 -100 26 0 39 38 39 111 l0 59 66 0 65 0 -2 -825 -3 -825 -88 0 -88 0 0 130
0 130 25 0 c23 0 25 4 25 45 l0 45 -90 0 -90 0 0 279 0 280 33 3 c29 3 32 6
35 41 l3 38 -103 -7 c-138 -10 -333 -11 -385 -1 l-43 7 0 -35 c0 -33 2 -35 35
-35 l35 0 -2 -287 -3 -288 -87 4 -88 3 0 -50 c0 -48 2 -51 28 -54 24 -3 27 -8
30 -43 2 -22 1 -77 -3 -122 l-7 -83 -99 0 -99 0 10 26 c6 16 10 327 10 819 l0
794 28 4 c44 7 89 7 105 2z m417 -994 l0 -298 -31 -7 c-63 -12 -59 -33 -59
293 l0 300 33 4 c17 2 38 5 45 5 9 2 12 -64 12 -297z m-1196 248 c85 -24 156
-125 156 -223 -1 -80 -64 -168 -146 -202 -47 -20 -141 -17 -189 5 -113 51
-168 209 -111 319 45 86 177 132 290 101z m2494 -26 c28 -17 58 -48 77 -77 25
-42 30 -59 29 -110 -2 -162 -150 -269 -301 -216 -90 31 -133 82 -154 179 -22
103 44 223 137 249 67 19 159 8 212 -25z m-1278 -722 c4 -92 7 -105 25 -111
38 -13 52 -1 59 53 3 29 3 75 -1 104 l-6 53 29 0 c16 0 39 3 52 6 22 6 22 6
22 -125 l0 -132 -237 3 -238 3 -8 114 c-4 63 -5 116 -3 119 3 2 25 7 51 9 l45
6 0 -79 c0 -44 3 -96 7 -118 6 -37 7 -38 41 -32 19 3 37 7 39 10 3 3 5 52 5
110 l0 105 41 4 c75 7 72 12 77 -102z"/>
<path d="M5015 5968 c-54 -29 -61 -83 -14 -122 58 -49 139 -19 139 50 0 65
-68 104 -125 72z"/>
<path d="M3765 5391 c-45 -27 -65 -63 -65 -117 0 -39 5 -51 34 -80 30 -30 40
-34 89 -34 51 0 57 3 91 40 31 34 36 47 36 88 0 56 -16 83 -64 106 -45 21 -84
20 -121 -3z"/>
<path d="M6233 5399 c-39 -11 -70 -49 -79 -95 -9 -48 2 -83 38 -116 25 -23 39
-28 81 -28 46 0 54 4 89 40 32 35 38 48 38 84 0 51 -27 92 -76 112 -38 16 -46
16 -91 3z"/>
<path d="M7685 6359 c-4 -5 -10 -31 -13 -57 -6 -35 -13 -49 -30 -58 -44 -22
-48 -32 -23 -58 13 -13 21 -32 19 -43 -3 -15 -12 -18 -62 -16 -32 1 -61 5 -64
8 -3 3 2 20 10 39 15 30 15 36 2 55 -26 37 -49 43 -78 20 -30 -23 -32 -44 -11
-85 17 -33 7 -44 -40 -44 -49 0 -58 11 -50 64 5 30 3 51 -4 60 -7 8 -18 36
-24 62 -13 50 -30 66 -41 39 -3 -9 -9 -75 -13 -147 -5 -112 -10 -138 -31 -177
-13 -25 -55 -124 -93 -219 -80 -201 -161 -384 -266 -600 -41 -85 -72 -161 -69
-169 5 -12 98 -14 692 -12 l685 2 -6 26 c-4 14 -55 141 -115 281 -59 140 -132
314 -160 385 -29 72 -81 191 -117 265 -57 120 -64 141 -64 195 1 57 -3 156 -7
183 -2 15 -18 16 -27 1z m-100 -708 c43 -19 100 -78 116 -118 14 -37 11 -119
-6 -160 -40 -95 -108 -142 -206 -143 -141 0 -246 122 -225 264 6 40 17 59 54
98 26 27 65 55 87 63 55 20 132 18 180 -4z"/>
<path d="M7428 5544 c-71 -38 -77 -156 -11 -200 14 -9 46 -16 71 -16 41 0 51
5 84 41 31 33 38 48 38 82 0 33 -6 47 -34 75 -28 28 -41 34 -77 34 -24 -1 -56
-7 -71 -16z"/>
<path d="M2618 4923 c-647 -3 -688 -4 -688 -21 0 -9 10 -32 23 -51 12 -19 28
-44 34 -55 10 -16 13 -201 13 -803 l0 -783 60 0 60 0 -2 800 -3 800 508 0 507
0 0 -800 0 -800 58 0 59 0 6 323 c4 177 7 541 7 809 l0 487 25 37 c14 20 25
43 25 50 0 8 -1 13 -2 12 -2 -2 -312 -4 -690 -5z"/>
<path d="M6810 4916 c0 -9 11 -38 25 -64 44 -83 28 -152 -28 -124 -20 10
-1047 29 -1047 19 0 -2 7 -26 15 -54 l15 -51 423 -3 c367 -4 515 0 617 13 l25
3 3 -722 2 -723 55 0 55 0 0 799 0 799 363 -2 c199 -1 426 1 504 4 l142 5 5
-29 c3 -16 6 -377 6 -802 l0 -774 55 0 55 0 2 658 c1 361 3 718 3 792 l0 135
38 55 c20 30 37 58 37 62 0 5 -301 8 -669 8 -368 0 -676 3 -685 6 -11 4 -16 1
-16 -10z"/>
<path d="M4140 4749 c-102 -4 -321 -7 -487 -8 l-301 -1 -4 -49 c-3 -43 0 -50
17 -53 11 -2 229 -1 485 2 l464 5 8 40 c16 74 25 71 -182 64z"/>
<path d="M2844 4726 c-3 -8 -4 -27 -2 -43 2 -24 8 -28 36 -31 31 -3 32 -2 32
36 0 27 -5 42 -16 46 -26 10 -44 7 -50 -8z"/>
<path d="M2334 4716 c-3 -8 -4 -25 -2 -38 2 -18 10 -24 36 -26 31 -3 32 -2 32
37 0 39 -2 41 -30 41 -17 0 -33 -6 -36 -14z"/>
<path d="M2500 4691 c0 -40 1 -41 36 -41 35 0 35 1 32 38 -3 34 -6 37 -35 40
-32 3 -33 2 -33 -37z"/>
<path d="M2680 4690 c0 -37 2 -40 29 -40 26 0 29 4 33 35 5 42 3 45 -34 45
-26 0 -28 -3 -28 -40z"/>
<path d="M7200 4690 c0 -41 1 -41 33 -38 29 3 32 6 32 38 0 32 -3 35 -32 38
-32 3 -33 3 -33 -38z"/>
<path d="M7360 4690 l0 -41 38 3 c35 3 37 5 37 38 0 33 -2 35 -37 38 l-38 3 0
-41z"/>
<path d="M7540 4691 l0 -41 41 0 40 0 -3 38 c-3 35 -5 37 -40 40 l-38 3 0 -40z"/>
<path d="M7724 4716 c-3 -8 -4 -25 -2 -38 2 -19 10 -24 41 -26 36 -3 37 -2 37
31 0 36 -12 47 -51 47 -11 0 -22 -6 -25 -14z"/>
<path d="M2360 4373 c0 -30 3 -33 30 -33 l30 0 1 -232 c0 -128 4 -268 7 -310
l8 -78 -61 0 -60 0 0 -43 c0 -41 1 -42 38 -45 37 -3 37 -4 37 -47 0 -29 -5
-45 -15 -49 -10 -4 -15 -19 -15 -49 l0 -44 46 -7 c60 -8 194 -8 357 1 l127 6
0 42 c0 22 -4 45 -9 50 -6 6 -13 29 -17 53 l-7 42 42 0 41 0 0 45 0 45 -60 0
-60 0 0 258 c0 141 3 281 6 310 7 51 7 52 40 52 30 0 34 3 34 25 0 14 -6 28
-12 30 -7 3 -129 6 -271 7 l-257 3 0 -32z m310 -295 c0 -156 3 -300 6 -320 l7
-38 -58 0 -58 0 7 77 c3 42 6 186 6 320 l0 243 45 0 45 0 0 -282z m148 -495
l-3 -48 -182 -3 -183 -2 0 50 0 50 186 0 185 0 -3 -47z"/>
<path d="M3560 4376 c0 -33 2 -36 29 -36 l29 0 7 -102 c4 -57 6 -188 4 -293
l-4 -190 77 -3 78 -3 2 307 3 307 40 0 40 0 6 -279 c4 -153 7 -291 8 -306 1
-27 1 -27 74 -25 l72 2 3 293 2 292 35 0 c32 0 35 2 35 30 l0 30 -232 0 c-128
0 -250 3 -270 6 l-38 7 0 -37z"/>
<path d="M6020 4378 c0 -20 6 -27 23 -30 22 -3 22 -6 28 -193 4 -104 7 -238 8
-297 l1 -108 69 0 c54 0 70 4 75 16 3 9 6 146 6 305 l0 289 40 0 40 0 0 -252
c0 -139 3 -277 6 -305 l7 -53 73 0 74 0 0 128 c0 71 3 204 7 295 l6 167 29 0
c25 0 28 3 28 35 l0 35 -260 -2 -260 -3 0 -27z"/>
<path d="M7448 4403 l-228 -3 0 -30 c0 -26 4 -30 28 -30 l29 0 6 -221 c4 -121
4 -261 0 -310 l-6 -89 -56 0 -56 0 3 -45 4 -45 40 0 39 0 -3 -52 c-3 -48 -5
-53 -25 -50 -20 3 -23 -1 -23 -32 0 -19 -3 -41 -6 -50 -5 -14 17 -16 213 -16
121 0 248 3 283 7 l62 6 -6 61 c-3 34 -9 78 -12 100 l-6 38 41 -7 41 -7 0 46
0 46 -71 0 c-61 0 -70 2 -65 16 3 9 6 148 6 311 l0 295 28 -6 c37 -8 54 5 50
40 -4 34 26 31 -310 27z m72 -196 c0 -85 3 -229 7 -320 l6 -167 -53 0 -53 0 6
137 c4 75 7 219 7 320 l0 183 40 0 40 0 0 -153z m160 -626 l0 -48 -127 -5
c-71 -2 -158 -2 -195 0 l-68 4 0 49 0 49 195 0 195 0 0 -49z"/>
<path d="M4950 4287 c-50 -16 -143 -112 -158 -163 -9 -29 -12 -161 -12 -458
l0 -416 275 0 275 0 0 428 0 427 -30 51 c-35 63 -96 117 -149 132 -47 15 -154
14 -201 -1z"/>
<path d="M1395 3488 c11 -64 31 -96 76 -118 22 -12 42 -27 45 -35 3 -7 -1 -42
-9 -77 l-14 -63 -48 3 c-39 2 -46 0 -41 -14 3 -9 6 -149 6 -312 l0 -297 140 3
140 3 0 208 0 208 42 6 c47 6 58 -2 58 -45 0 -15 5 -30 10 -33 16 -10 12 -82
-4 -88 -11 -4 -13 -20 -9 -66 5 -52 3 -61 -11 -61 -13 0 -16 -11 -16 -65 l0
-65 884 0 c486 0 892 -3 901 -6 14 -6 16 5 15 92 -1 55 2 114 5 131 6 25 4 34
-9 39 -11 4 -16 18 -16 42 0 40 20 102 32 102 4 0 8 25 8 55 l0 55 -342 2
c-189 1 -612 0 -940 -2 l-598 -3 0 53 0 53 -35 -6 c-41 -7 -55 10 -55 67 0 20
-4 36 -10 36 -18 0 -11 60 8 66 81 27 90 37 101 120 l8 54 -165 0 -164 0 7
-42z m580 -557 c4 -44 3 -76 -4 -89 -7 -14 -8 -36 -1 -73 6 -28 10 -53 10 -55
0 -2 -22 -4 -50 -4 -50 0 -50 0 -50 33 0 18 7 42 15 53 19 26 19 31 -6 37 -20
5 -21 10 -14 54 4 26 7 63 7 81 -1 31 0 32 43 32 l43 0 7 -69z m159 37 c16
-76 18 -111 7 -132 -9 -15 -9 -34 -2 -66 5 -24 8 -48 5 -52 -3 -4 -28 -8 -55
-8 l-50 0 7 38 c3 20 10 41 15 47 16 17 9 43 -12 50 -16 5 -19 12 -15 28 3 12
9 40 12 62 9 62 11 65 48 65 30 0 34 -3 40 -32z m150 26 c9 -3 16 -15 16 -26
0 -12 5 -38 12 -60 9 -31 9 -44 -1 -59 -8 -14 -10 -39 -5 -80 l7 -59 -47 0
c-46 0 -46 0 -46 34 0 19 5 38 10 41 15 10 12 45 -5 52 -22 8 -17 145 5 155
20 9 35 9 54 2z m184 -21 c0 -16 4 -52 7 -80 5 -38 4 -53 -4 -53 -8 0 -10 -19
-5 -65 l7 -65 -48 0 -47 0 5 33 c4 17 9 47 13 64 5 25 2 34 -10 39 -14 5 -16
16 -11 68 9 85 9 86 53 86 36 0 39 -2 40 -27z m165 -15 c3 -24 8 -56 12 -71 5
-20 3 -33 -10 -47 -15 -17 -16 -24 -7 -46 7 -13 12 -38 12 -54 0 -29 -2 -30
-46 -30 l-47 0 6 38 c3 20 8 45 12 54 4 11 0 23 -12 33 -17 15 -19 23 -11 78
12 86 13 87 52 87 33 0 34 -2 39 -42z m165 8 c0 -18 5 -43 11 -54 16 -29 14
-69 -4 -76 -12 -4 -14 -17 -8 -66 l6 -60 -41 0 c-22 0 -43 3 -46 8 -2 4 1 26
7 49 8 33 8 47 -2 67 -14 25 -11 132 4 155 3 6 21 11 40 11 31 0 33 -2 33 -34z
m162 7 c0 -16 7 -41 15 -57 20 -37 19 -66 -2 -81 -14 -10 -15 -18 -4 -59 6
-26 9 -51 6 -57 -8 -13 -95 -12 -95 2 0 5 5 30 11 54 9 36 8 48 -4 65 -11 16
-14 37 -10 79 6 60 21 81 60 81 18 0 23 -5 23 -27z m183 -20 c3 -27 8 -60 12
-75 6 -22 3 -32 -14 -46 -19 -15 -21 -21 -12 -45 6 -16 11 -39 11 -52 0 -21
-4 -23 -42 -19 -23 2 -43 6 -46 9 -3 2 0 22 5 44 8 31 7 44 -4 60 -10 15 -12
36 -8 73 11 98 11 98 54 98 l39 0 5 -47z m157 17 c0 -16 5 -50 12 -74 10 -39
10 -48 -5 -64 -15 -16 -16 -26 -8 -63 5 -24 8 -45 7 -47 -6 -6 -85 -6 -91 0
-3 3 -1 17 5 32 14 37 13 67 -4 85 -11 13 -12 29 -5 76 13 83 14 85 54 85 32
0 35 -2 35 -30z m166 22 c-3 -5 0 -39 5 -76 9 -57 8 -70 -5 -84 -12 -14 -13
-26 -6 -57 5 -22 10 -43 10 -47 0 -5 -20 -8 -45 -8 -25 0 -45 3 -45 8 1 4 5
26 9 49 6 32 5 46 -5 54 -17 14 -18 48 -2 116 12 53 13 53 51 53 21 0 36 -4
33 -8z"/>
<path d="M3634 3480 c10 -73 24 -97 67 -114 53 -22 62 -42 46 -113 l-13 -58
-48 -3 -48 -3 6 -37 c3 -20 9 -159 13 -309 l6 -272 129 2 128 2 1 130 c1 72 2
209 3 306 l2 177 -36 -5 -37 -5 -17 66 c-9 37 -14 71 -11 76 3 6 27 24 53 41
26 18 49 34 52 36 2 3 7 33 10 69 l5 64 -159 0 -159 0 7 -50z"/>
<path d="M6177 3468 c19 -84 28 -96 69 -104 41 -8 64 -46 45 -76 -6 -10 -11
-34 -11 -53 l0 -35 -50 0 -50 0 0 -44 c0 -25 5 -48 11 -52 8 -5 10 -57 8 -173
-2 -91 -3 -208 -1 -258 l2 -93 135 0 135 0 0 309 0 309 -45 -6 c-45 -5 -45 -4
-45 26 0 17 -5 43 -10 58 -15 38 -4 61 42 90 44 28 68 74 68 129 l0 35 -159 0
-158 0 14 -62z"/>
<path d="M8404 3503 c21 -84 29 -105 48 -123 12 -11 32 -20 45 -20 12 0 27 -9
33 -19 13 -25 13 -61 0 -61 -5 0 -10 -18 -10 -39 l0 -40 -52 -3 -52 -3 2 -46
3 -46 -47 -7 c-26 -3 -444 -6 -930 -6 l-884 0 0 -29 c0 -45 10 -61 36 -61 19
0 24 -5 24 -27 0 -16 7 -46 14 -68 12 -34 12 -42 0 -59 -8 -12 -14 -45 -14
-78 0 -58 0 -58 -30 -58 l-30 0 0 -65 0 -65 1053 0 c578 0 1062 -3 1074 -6
l22 -6 3 317 3 316 -45 -3 -45 -3 -3 50 c-2 28 -4 65 -5 84 -2 30 2 34 32 45
44 14 68 49 74 109 l5 47 -165 0 -165 0 6 -27z m-930 -545 c9 -79 7 -126 -5
-134 -7 -4 -9 -24 -6 -55 l6 -49 -44 0 c-42 0 -45 2 -45 26 0 14 5 34 10 45 8
14 7 25 -5 41 -18 27 -19 68 -4 117 7 20 13 42 15 49 2 6 19 12 37 12 34 0 34
-1 41 -52z m482 46 c16 -4 24 -21 37 -77 16 -67 16 -73 1 -84 -14 -10 -16 -23
-10 -66 l6 -55 -31 -6 c-61 -12 -69 -9 -69 28 0 19 5 38 10 41 16 10 12 47 -7
60 -15 11 -15 18 -5 52 7 22 12 57 12 77 0 38 9 43 56 30z m194 -16 c0 -13 7
-48 15 -78 13 -50 13 -56 -4 -75 -13 -14 -16 -27 -10 -45 4 -14 7 -37 8 -52 1
-27 -1 -28 -43 -28 -25 0 -47 3 -49 8 -3 4 0 31 6 59 9 46 9 55 -5 65 -15 12
-16 22 -5 91 l11 77 38 0 c33 0 38 -3 38 -22z m149 13 c7 -5 19 -41 26 -80 10
-58 10 -74 -2 -90 -10 -15 -11 -30 -3 -63 5 -24 10 -46 10 -50 0 -10 -87 -10
-94 0 -2 4 0 29 6 55 8 41 7 51 -7 67 -15 16 -15 27 -4 94 10 67 14 76 33 76
11 0 27 -4 35 -9z m-1496 -73 c17 -70 17 -71 -4 -94 -17 -18 -19 -26 -10 -42
6 -12 11 -35 11 -52 0 -31 0 -31 -47 -28 l-48 3 3 35 c4 53 3 80 -4 133 -3 26
-3 63 0 82 6 33 10 35 45 35 l37 0 17 -72z m161 27 c4 -24 11 -47 17 -50 16
-11 10 -50 -12 -68 -13 -12 -18 -24 -14 -35 4 -9 9 -34 12 -54 l6 -38 -53 0
c-51 0 -52 0 -46 26 17 65 18 85 6 99 -8 10 -10 36 -5 90 l7 75 38 0 c37 0 38
-1 44 -45z m170 3 c3 -24 8 -59 11 -79 5 -25 2 -39 -8 -48 -12 -9 -14 -25 -10
-67 l6 -54 -47 0 c-51 0 -56 9 -35 69 9 25 8 36 -5 56 -19 29 -20 47 -4 114
11 50 12 51 49 51 36 0 37 -1 43 -42z m170 0 c3 -24 8 -59 12 -80 5 -30 3 -38
-15 -47 -17 -10 -19 -16 -11 -37 6 -14 10 -36 10 -50 0 -22 -4 -24 -45 -24
-49 0 -57 14 -34 63 9 20 8 30 -6 51 -16 24 -17 34 -6 97 l13 69 38 0 c37 0
38 -1 44 -42z m340 -10 c9 -78 7 -118 -5 -118 -7 0 -8 -18 -4 -55 l7 -55 -50
0 -51 0 14 47 c8 25 20 50 27 54 9 6 7 9 -8 9 -25 0 -34 18 -34 66 0 22 6 37
16 41 11 4 13 13 9 34 -6 28 -5 29 33 29 l39 0 7 -52z m166 31 c0 -12 5 -39
11 -60 10 -30 9 -45 -4 -77 -9 -22 -15 -41 -13 -43 2 -2 6 -21 9 -41 l6 -38
-50 0 c-43 0 -49 3 -49 20 0 12 7 35 16 53 16 30 16 32 -5 45 -22 15 -30 75
-11 87 6 3 10 22 10 41 0 33 1 34 40 34 34 0 40 -3 40 -21z m625 -174 c-10
-151 -25 -124 -24 45 l0 155 16 -55 c11 -41 13 -79 8 -145z"/>
<path d="M4080 3110 l0 -40 970 0 970 0 0 33 0 34 -227 6 c-124 4 -561 7 -970
7 l-743 0 0 -40z"/>
<path d="M4052 2983 c-20 -4 -23 -10 -20 -38 l3 -34 275 -3 c151 -2 609 -2
1018 0 l742 2 0 33 0 34 -127 6 c-140 8 -1854 7 -1891 0z"/>
<path d="M4030 2780 l0 -40 1030 0 1030 0 0 40 0 40 -1030 0 -1030 0 0 -40z"/>
<path d="M4020 2615 l0 -44 1035 0 1035 0 0 45 0 44 -1035 0 -1035 0 0 -45z"/>
<path d="M1390 2415 l0 -51 3663 1 3662 0 0 47 0 48 -875 0 c-481 0 -2129 1
-3663 3 l-2787 2 0 -50z"/>
<path d="M1380 2198 l0 -48 3654 0 c2010 0 3661 -3 3670 -6 13 -5 16 3 16 48
l0 55 -3670 -1 -3670 -1 0 -47z"/>
<path d="M3297 2003 c-2 -5 -2 -27 1 -50 l4 -43 1287 1 c707 1 1486 4 1731 8
l445 6 3 43 3 42 -1735 0 c-954 0 -1737 -3 -1739 -7z"/>
<path d="M6875 2001 c-16 -3 -31 -14 -33 -23 -5 -24 31 -40 81 -36 37 3 42 6
45 29 4 36 -24 45 -93 30z"/>
<path d="M3150 1975 c0 -10 7 -15 18 -13 21 4 19 22 -2 26 -10 2 -16 -3 -16
-13z"/>
<path d="M5032 1798 c-21 -21 -15 -85 10 -102 31 -22 45 -20 73 9 28 28 32 66
9 89 -18 19 -75 21 -92 4z"/>
</g>
</svg>
